<?xml version="1.0" standalone="no"?>
<!DOCTYPE svg PUBLIC "-//W3C//DTD SVG 20010904//EN"
 "http://www.w3.org/TR/2001/REC-SVG-20010904/DTD/svg10.dtd">
<svg version="1.0" xmlns="http://www.w3.org/2000/svg"
 width="48.000000pt" height="48.000000pt" viewBox="0 0 48.000000 48.000000"
 preserveAspectRatio="xMidYMid meet">

<g transform="translate(0.000000,48.000000) scale(0.100000,-0.100000)"
fill="#000000" stroke="none">
<path d="M226 368 c-30 -40 -79 -98 -110 -128 -69 -67 -71 -86 -13 -144 68
-67 78 -66 161 13 39 37 88 78 109 90 22 14 37 30 37 42 0 23 -34 59 -55 59
-21 0 -19 12 7 45 l22 28 -37 33 c-20 19 -43 34 -52 34 -8 0 -39 -33 -69 -72z
m110 11 c3 -6 -3 -24 -15 -40 -11 -16 -31 -42 -42 -58 -31 -42 -17 -55 31 -31
72 37 84 19 15 -22 -26 -16 -43 -33 -40 -40 3 -8 -16 -35 -43 -61 l-48 -48
-32 40 c-18 22 -41 43 -53 46 -19 6 -14 14 48 78 38 40 84 93 102 120 27 40
35 46 51 37 10 -6 22 -15 26 -21z m-187 -263 c14 -14 21 -29 18 -33 -8 -7 -77
55 -77 69 0 13 32 -7 59 -36z"/>
</g>
</svg>
