<svg xmlns="http://www.w3.org/2000/svg" width="48" height="48"><path fill="#181817" d="M28 2c4.593 1.486 7.436 3.85 11 7l-.5 2.312c-.591 2.724-.591 2.724-.5 5.688l2 1.688C42 21 42 21 42.25 23.75c-.353 3.177-2.219 3.949-4.555 5.91C36 31 36 31 33.25 32.688 28.287 36.219 24.222 40.628 20 45c-5.928-1.013-9.555-3.212-13.375-7.938C4.94 33.888 4.847 32.481 5 29l2.414-2.309c5.407-5.242 10.376-10.252 14.34-16.711C23.579 7.079 25.75 4.58 28 2M15.375 25l-1.914 1.688L12 28c.653 3.333.653 3.333 3.062 5.75 1.794 1.446 1.794 1.446 3.626 1.062C21.95 33.666 23.687 31.506 26 29c-1.293-2.884-2.659-4.872-5-7-2.77 0-3.582 1.184-5.625 3"/><path fill="#0f110d" d="M28 2c4.593 1.486 7.436 3.85 11 7l-.5 2.312c-.523 2.813-.694 4.978.062 7.75C39 21 39 21 38 23l-4-2-5 3-3-1 1.242-1.828 1.633-2.422 1.617-2.391A56 56 0 0 0 34 10l-5-2a698 698 0 0 0-3.875 4.688l-2.18 2.636c-2.021 2.55-2.021 2.55-3.007 5.332C18.488 24.28 16.066 25.668 13 28v3c3.395 3.231 3.395 3.231 5.688 2.875C22.24 32.531 23.71 29.99 26 27l2 1c-.154 5.083-3.021 7.358-6.504 10.645L20 40c-3.923-1.825-6.738-4.183-10-7l-1 3H6l-1-7 2.414-2.309c5.407-5.242 10.376-10.252 14.34-16.711C23.579 7.079 25.75 4.58 28 2"/><path fill="#76ce3a" d="m29 7 5 2c0 4.592-.685 5.332-3.5 8.75l-1.969 2.422L27 22l2 1 5-3 4 2c-1.498 4.662-4.885 5.866-9 8l-9-8c1.012-5.059 1.873-6.516 5.062-10.312l2.223-2.676z"/><path fill="#050604" d="m26 27 2 1c-.154 5.083-3.021 7.358-6.504 10.645L20 40c-4.294-1.923-6.772-4.625-10-8l1-4 2.25 2.438C15.895 33.317 15.895 33.317 20 34z"/><path fill="#65af39" d="m34 20 4 2c-1.498 4.662-4.885 5.866-9 8l-8-7h3c5.318-.561 5.318-.561 10-3"/><path fill="#23241f" d="M12 32a5.001 5.001 0 0 1 0 10.001A5.001 5.001 0 0 1 12 32"/><path fill="#060a04" d="M35 14c2.572 1.286 3.01 2.334 4 5-.375 2.25-.375 2.25-1 4l-4-2-5 3-3-1 5-7 2 1-1 2 4-1z"/><path fill="#151913" d="m38 19 4 2v5c-5.625 5-5.625 5-9 5v-2h3l.438-2.188z"/><path fill="#1b1b1a" d="m17 19 1 3c-4.75 5.875-4.75 5.875-7 7l-1 4H6c.474-4.317 3.034-6.336 6.062-9.25l2.786-2.703z"/><path fill="#86d74f" d="m29 7 5 2c0 5.305-1.536 6.19-5 10l-2-1 2-2.312c2.299-2.531 2.299-2.531 2-5.688h-2l-4 4c1.074-2.915 1.778-4.778 4-7"/><path fill="#5e9f33" d="m34 20 4 2c-1.498 4.662-4.885 5.866-9 8v-3c3.75-3 3.75-3 6-3z"/><path fill="#88de4f" d="m23 15 2 1-2 4h3v3c-3 0-3 0-6-1 .75-4.75.75-4.75 3-7"/><path fill="#090c07" d="m21 11 3 1c-1.25 3.653-1.671 4.781-5 7-.125-2.875-.125-2.875 0-6z"/><path fill="#dde1c1" d="m10 32 7 6v2c-3.795-1.491-5.61-3.757-8-7z"/><path fill="#0d150b" d="m35 26 1 3h-3l1 3-4 2v-5z"/><path fill="#192014" d="M34 12h1l2 7h-5l-1-4z"/><path fill="#0b0b0a" d="m12 39 4 1 1 3 3 2c-4.75-.75-4.75-.75-7-3z"/><path fill="#2e4620" d="m36 25 1 2 3 1c-3.625 3-3.625 3-7 3v-2h3z"/><path fill="#82d44b" d="M35 21v3l-4 1-2-2c3.75-2 3.75-2 6-2"/><path fill="#54544c" d="m7 36 4 2v2l-4-2z"/><path fill="#6da943" d="m34 20 4 2-1 3c-3-3.875-3-3.875-3-5"/><path fill="#151b15" d="M36 9h3v3l-3 1z"/></svg>